<svg xmlns="http://www.w3.org/2000/svg" width="32" height="32" viewBox="0 0 32 32">
  <rect width="32" height="32" rx="4" fill="#FAFAF8"/>
  <!-- Clean geometric "a" — filled, squished -->
  <g transform="translate(2, 1) scale(1, 0.93)">
    <path d="M19 25V13.5C19 9 15.5 6 11.5 6C7.5 6 4.5 8.5 4 11.5L7 12.3C7.3 10.5 9 8.8 11.5 8.8C14 8.8 16 10.5 16 13.5V15C14.5 14 13 13.5 11 13.5C7 13.5 4 16 4 19.5C4 23 7 25.5 11 25.5C13.5 25.5 15.5 24.5 16.5 23V25H19ZM16 19.5C16 22 13.5 23 11.5 23C9 23 7 21.5 7 19.5C7 17.5 9 16 11.5 16C13.5 16 15 16.5 16 17.5V19.5Z" fill="#2C2420"/>
  </g>
  <!-- Baby blue square dot -->
  <rect x="22" y="21" width="6" height="6" fill="#A8C8D8"/>
</svg>
