<svg xmlns="http://www.w3.org/2000/svg" width="32" height="32" viewBox="0 0 32 32">
  <rect width="32" height="32" rx="4" fill="#F4F2EF"/>
  <!-- Bold "a" matching the alignd logo -->
  <path d="M18.8 26V14.2C18.8 9.2 15.2 5.8 10.8 5.8C6.8 5.8 3.8 8.2 3.2 11.2L6.6 12C6.9 10 8.6 8.4 10.8 8.4C13.4 8.4 15.2 10.3 15.2 13.8V15.4C13.8 14.4 12 13.8 10.2 13.8C6 13.8 3 16.4 3 19.8C3 23.4 6.2 26.2 10.2 26.2C12.6 26.2 14.6 25 15.6 23.4V26H18.8ZM15.2 20C15.2 22.4 13 23.8 10.8 23.8C8.4 23.8 6.6 22.2 6.6 19.8C6.6 17.6 8.4 16.2 10.8 16.2C12.6 16.2 14.2 16.8 15.2 17.8V20Z" fill="#2C2420"/>
  <!-- Blue dot -->
  <circle cx="24.5" cy="23.5" r="3.8" fill="#A8C8D8"/>
</svg>
